<svg height="512" width="512" xmlns="http://www.w3.org/2000/svg" fill="#61DAFB">
  <path d="M165.992 46h59.997v105h-59.997z"/>
  <path d="M389.981 172.83V91c0-24.81-20.189-45-44.998-45h-88.996v120c0 8.28-6.72 15-14.999 15h-89.996c-8.28 0-14.999-6.72-14.999-15V46c-61.832.007-91.864-.017-92.565.03C19.339 46.86 0 66.71 0 91v300c0 24.81 20.189 45 44.998 45h276.586l-21.599-21.6c-86.378-86.382-29.505-233.144 89.996-241.57zM165.942 376H75.946c-8.28 0-14.999-6.72-14.999-15s6.72-15 14.999-15h89.996c8.28 0 14.999 6.72 14.999 15s-6.72 15-14.999 15zm.1-60H75.946c-8.28 0-14.999-6.72-14.999-15s6.72-15 14.999-15h90.096c8.28 0 14.999 6.72 14.999 15s-6.72 15-14.999 15zM400.723 296.7c-9.814 0-17.799 7.985-17.799 17.8s7.985 17.8 17.799 17.8 17.799-7.985 17.799-17.8-7.985-17.8-17.799-17.8z"/>
  <path d="M479.243 235.139c-43.572-43.574-114.469-43.574-158.041 0v.001c-43.572 43.574-43.572 114.475 0 158.049l68.415 68.418c5.858 5.859 15.355 5.858 21.212 0l68.415-68.418c43.672-43.676 43.678-114.369-.001-158.05zM400.723 362.3c-26.356 0-47.798-21.443-47.798-47.8s21.442-47.8 47.798-47.8 47.797 21.443 47.797 47.8-21.442 47.8-47.797 47.8z"/>
</svg>
